Release Title 

Nanny McPhee and The Big Bang 2010 H264 XviD By STAR.1.NWRG 

Release Date 

26 March 2010 (UK) 

Release Length 

01:44:46 

Storyline 


Nanny McPhee arrives to help a harried young mother who is trying to run the family farm while her husband is away at war, though she uses her magic to teach the woman's children and their two spoiled cousins five new lessons. 

Cast 


Ralph Fiennes ... Lord Gray 

Ewan McGregor ... Mr. Green 

Maggie Gyllenhaal ... Mrs. Green 

Maggie Smith ... Mrs. Docherty 

Emma Thompson ... Nanny McPhee 

Rhys Ifans ... Uncle Phil 

Asa Butterfield ... Norman Green 

Daniel Mays ... Blenkinsop 

Bill Bailey ... Farmer MacReadie 

Nonso Anozie ... Sergeant Jeffreys 

Sinead Matthews ... Miss Topsey 

Katy Brand ... Miss Turvey 

Sam Kelly ... Mr. Spolding 

Eros Vlahos ... Cyril Gray 

Lil Woods ... Megsie Green 

Oscar Steer ... Vincent Green 

Rosie Taylor-Ritson ... Celia Gray 


Genre 

Comedy | Family | Fantasy 

Language 

English 

Original Source --RX 




Video 

Video
ID : 1
Format : AVC
Format/Info : Advanced Video Codec
Format profile : High@L2.1
Format settings, CABAC : Yes
Format settings, ReFrames : 3 frames
Codec ID : avc1
Codec ID/Info : Advanced Video Coding
Duration : 1h 44mn
Bit rate mode : Variable
Bit rate : 1 000 Kbps
Width : 576 pixels
Height : 240 pixels
Display aspect ratio : 2.40:1
Frame rate mode : Variable
Frame rate : 24.980 fps
Minimum frame rate : 12.500 fps
Maximum frame rate : 25.000 fps
Color space : YUV
Chroma subsampling : 4:2:0
Bit depth : 8 bits
Scan type : Progressive
Bits/(Pixel*Frame) : 0.290
Stream size : 749 MiB (86%)
Writing library : x264 core 79
Encoding settings : cabac=1 / ref=3 / deblock=1:0:0 / analyse=0x3:0x113 / me=hex / subme=7 / psy=1 / psy_rd=1.0:0.0 / mixed_ref=1 / me_range=16 / chroma_me=1 / trellis=1 / 8x8dct=1 / cqm=0 / deadzone=21,11 / chroma_qp_offset=-2 / threads=3 / nr=0 / decimate=1 / mbaff=0 / constrained_intra=0 / bframes=3 / b_pyramid=0 / b_adapt=2 / b_bias=0 / direct=1 / wpredb=1 / wpredp=2 / keyint=250 / keyint_min=25 / scenecut=40 / rc_lookahead=50 / rc=2pass / mbtree=1 / bitrate=1000 / ratetol=1.0 / qcomp=0.60 / qpmin=10 / qpmax=51 / qpstep=4 / cplxblur=20.0 / qblur=0.5 / ip_ratio=1.40 / aq=1:1.00
Encoded date : UTC 2010-07-13 21:43:14
Tagged date : UTC 2010-07-13 22:33:36
Color primaries : BT.601-6 525, BT.1358 525, BT.1700 NTSC, SMPTE 170M
Transfer characteristics : BT.709-5, BT.1361
Matrix coefficients : BT.601-6 525, BT.1358 525, BT.1700 NTSC, SMPTE 170M 

Audio 

Audio
ID : 2
Format : AAC
Format/Info : Advanced Audio Codec
Format version : Version 4
Format profile : LC
Format settings, SBR : No
Codec ID : 40
Duration : 1h 44mn
Bit rate mode : Variable
Bit rate : 160 Kbps
Maximum bit rate : 239 Kbps
Channel(s) : 2 channels
Channel positions : Front: L R
Sampling rate : 48.0 KHz
Stream size : 120 MiB (14%)
Encoded date : UTC 2010-07-13 21:43:14
Tagged date : UTC 2010-07-13 22:33:36

 
http://www.imdb.com/title/tt1415283/




Screenshots
 
http://postimg.com/image/18000/17767.jpg
 
http://postimg.com/image/18000/17768.jpg